<svg width="121" height="38" viewBox="0 0 121 38" fill="none" xmlns="http://www.w3.org/2000/svg">
<path d="M35.3963 30.6595C35.3055 30.868 35.3963 30.9871 35.6386 30.9871H39.8188C40.0308 30.9871 40.1217 30.9274 40.1822 30.6892L41.7877 26.1041H51.7535L53.4195 30.7191C53.4801 30.8977 53.5709 30.9871 53.7527 30.9871H58.0843C58.3569 30.9871 58.3872 30.868 58.3267 30.6595L50.6327 9.10369C50.2692 8.00206 49.5422 7.25773 48.3003 7.22797H45.5439C44.211 7.22797 43.5749 7.88298 43.1204 9.10369L35.3963 30.6595ZM42.8176 22.6207L46.7555 11.3367L50.754 22.6207H42.8176ZM59.7514 30.6892C59.7514 30.9274 59.8121 30.9871 60.024 30.9871H63.7195C63.9316 30.9871 64.0224 30.9274 64.0224 30.6892V7.52567C64.0224 7.2875 63.9316 7.22797 63.7195 7.22797H60.024C59.8121 7.22797 59.7514 7.2875 59.7514 7.52567V30.6892ZM70.2332 17.6188H73.7772C76.564 17.6188 78.1695 19.5541 78.1695 22.6207C78.1695 25.6278 76.7761 27.6524 74.2317 27.6524C71.7478 27.6524 70.2332 26.0149 70.2332 22.8588V17.6188ZM66.1742 36.6438C66.1742 36.8821 66.2348 36.9417 66.4469 36.9417H69.9908C70.2029 36.9417 70.2937 36.8821 70.2937 36.6438V29.2304C70.2937 29.2304 71.5054 31.1954 74.8981 31.1954C79.1387 31.1954 82.289 27.6524 82.289 22.5016C82.289 17.3508 78.8055 14.046 73.9287 14.046H68.6278C67.1436 14.046 66.1742 14.9094 66.1742 16.3683V36.6438ZM83.9258 30.6892C83.9258 30.9274 83.9865 30.9871 84.1985 30.9871H87.7728C88.0152 30.9871 88.0757 30.9274 88.0757 30.6892V21.3107C88.0757 18.9586 89.4994 17.5593 91.4987 17.5593C93.4676 17.5593 94.9216 18.9884 94.9216 21.3107V30.6892C94.9216 30.9274 94.9821 30.9871 95.1941 30.9871H98.7383C98.9805 30.9871 99.0411 30.9274 99.0411 30.6892V21.1916C99.0411 16.6065 96.5875 13.8376 92.3469 13.8376C89.6205 13.8376 88.0757 15.356 88.0757 15.356V7.52567C88.0757 7.2875 87.9849 7.22797 87.7728 7.22797H84.1985C83.9865 7.22797 83.9258 7.2875 83.9258 7.52567V30.6892ZM101.193 30.6892C101.193 30.9274 101.254 30.9871 101.465 30.9871H105.1C105.312 30.9871 105.373 30.9274 105.373 30.6892V21.3404C105.373 19.0181 106.797 17.7677 108.887 17.7677H110.31C110.523 17.7677 110.583 17.7082 110.583 17.47V14.3438C110.583 14.1056 110.523 14.046 110.31 14.046H108.584C104.283 14.046 101.193 16.6959 101.193 21.2512V30.6892Z" fill="#F6F7F8"/>
<path fill-rule="evenodd" clip-rule="evenodd" d="M18.1925 9.51434L22.3067 16.5185L18.1641 20.5904L16.1243 17.1178C14.7759 14.8222 12.8924 14.9726 11.6323 17.1178L8.96826 21.6533L6.30418 26.1887L5.57975 30.9867C1.912 30.9867 -0.0473903 27.832 1.83966 24.6195L6.27602 17.0669L10.7124 9.51434C12.5462 6.39225 16.3055 6.30172 18.1925 9.51434ZM23.2311 18.0923L27.0652 24.6195C28.899 27.7415 27.0992 30.9868 23.3251 30.9868H19.7788C22.4757 30.9868 23.2849 29.3084 22.0248 27.1631L19.9639 23.6545L23.2311 18.0923Z" fill="#F6F7F8"/>
<path fill-rule="evenodd" clip-rule="evenodd" d="M5.57975 30.9868C8.01551 30.9868 9.80649 29.2999 10.9795 28.1469C12.1525 26.9941 25.3647 14.0077 25.3647 14.0077V14.0076C26.1405 13.2452 26.1405 12.009 25.3647 11.2465C24.589 10.4841 23.3314 10.4841 22.5556 11.2465L8.77088 24.7955C6.35627 27.1688 1.98267 24.3762 3.66854 21.506L1.83966 24.6195C-0.0473903 27.8322 1.912 30.9868 5.57975 30.9868Z" fill="#00A5DF"/>
<path fill-rule="evenodd" clip-rule="evenodd" d="M19.9653 30.9836C20.0255 30.9856 20.0866 30.9864 20.1486 30.9864H23.3247C27.0989 30.9864 28.8987 27.7413 27.0648 24.6192L23.2307 18.0919L20.5666 22.6274L19.9635 23.6543L17.9025 27.1628C16.5873 29.4019 17.577 30.9108 19.9653 30.9836Z" fill="#F6F7F8"/>
</svg>
