<svg width="159" height="26" viewBox="0 0 159 26" fill="none" xmlns="http://www.w3.org/2000/svg">
<g clip-path="url(#clip0_169_112)">
<path d="M15.0345 26C10.6807 26 6.33745 26 1.98372 26C1.99416 25.9395 2.0046 25.8791 2.0046 25.8186C2.0046 18.4298 2.0046 11.0409 2.0046 3.66418C2.0046 3.47069 1.97327 3.25302 1.86887 3.1079C1.26331 2.17674 0.626436 1.26976 0 0.362787C0 0.278136 0 0.205578 0 0.120926C0.960536 0.120926 1.91063 0.108833 2.87117 0.120926C6.68199 0.120926 10.4824 0.0604614 14.2932 0.157206C16.4753 0.205578 18.3128 1.2093 19.4508 3.50697C20.9439 6.51814 20.1295 11.3312 16.6736 12.5646C16.6423 12.5767 16.611 12.613 16.6528 12.5888C17.2688 12.9637 17.9683 13.254 18.5008 13.7619C20.4009 15.5637 21.0378 17.946 20.5471 20.6791C20.0773 23.2791 18.6574 24.9116 16.4544 25.6372C15.9846 25.7823 15.5043 25.8791 15.0345 26ZM6.80728 21.1628C9.01024 21.1628 11.1506 21.2353 13.2805 21.1386C15.1806 21.054 16.2247 19.2642 15.6714 17.2326C15.3268 15.9749 14.3976 15.2372 13.0925 15.2251C11.1088 15.213 9.12509 15.213 7.14138 15.2251C7.02653 15.2251 6.91168 15.2614 6.79683 15.2735C6.80728 17.2446 6.80728 19.1674 6.80728 21.1628ZM6.79683 10.3879C8.95804 10.3879 11.0566 10.3879 13.1656 10.3879C13.3222 10.3879 13.4788 10.3274 13.625 10.2912C14.7317 9.97674 15.3686 9.04558 15.3895 7.72744C15.4103 6.37302 14.7943 5.40558 13.6668 5.07907C13.3327 4.98232 12.9777 4.95814 12.6331 4.94604C10.8582 4.93395 9.08333 4.93395 7.30842 4.94604C7.14138 4.94604 6.97433 4.97023 6.79683 4.98232C6.79683 6.78418 6.79683 8.54976 6.79683 10.3879Z" fill="white"/>
<path d="M62.226 0C62.226 8.59814 62.226 17.1963 62.226 25.8549C62.0172 25.867 61.8502 25.8912 61.6831 25.8912C60.566 25.8912 59.4593 25.8549 58.3421 25.9154C57.8201 25.9395 57.5278 25.7098 57.2459 25.2502C54.0197 20.1228 50.7831 15.0074 47.5465 9.89209C47.4004 9.65023 47.2438 9.42047 47.0245 9.06977C47.0036 9.29954 46.9723 9.40837 46.9723 9.51721C46.9723 14.9591 46.9723 20.4009 46.9723 25.8428C46.9723 25.9033 46.9828 25.9637 46.9932 26.0242C45.3958 26.0242 43.7879 26.0242 42.1905 26.0242C42.1905 18.5991 42.201 11.174 42.1905 3.74884C42.1905 3.4707 42.0757 3.15628 41.9399 2.9386C41.2926 1.93488 40.6349 0.967442 39.9875 0C42.3576 0 44.7171 0 47.0872 0C50.5012 5.3814 53.9153 10.7507 57.4234 16.2651C57.4442 15.9144 57.4651 15.7451 57.4651 15.5758C57.4651 10.5451 57.4651 5.50233 57.4651 0.471628C57.4651 0.314419 57.4338 0.157209 57.4234 0C59.0208 0 60.6286 0 62.226 0Z" fill="white"/>
<path d="M111.819 0C111.809 0.24186 111.798 0.483721 111.798 0.725581C111.798 8.82791 111.798 16.9181 111.798 25.0205C111.798 25.2744 111.798 25.5405 111.798 25.8912C111.37 25.8912 110.974 25.8912 110.587 25.8912C109.595 25.8912 108.604 25.9153 107.612 25.8791C107.403 25.867 107.121 25.6977 106.996 25.5042C103.582 20.1228 100.188 14.7535 96.7848 9.37209C96.7326 9.29954 96.67 9.22698 96.5134 9.03349C96.5134 9.40837 96.5134 9.65023 96.5134 9.88C96.5134 14.9712 96.5134 20.0744 96.5134 25.1656C96.5134 25.4437 96.4821 25.7219 96.4716 26.0121C94.9055 26.0121 93.3394 26.0121 91.7733 26.0121C91.7733 18.6474 91.7733 11.2828 91.7525 3.93023C91.7525 3.56744 91.6063 3.15628 91.4288 2.85395C90.8337 1.86233 90.1968 0.943256 89.5808 0C91.9508 0 94.3104 0 96.6804 0C96.8057 0.217674 96.9206 0.447442 97.0458 0.653023C100.262 5.70791 103.477 10.7507 106.693 15.8056C106.766 15.9265 106.86 16.0233 106.975 16.1805C107.006 16.0474 107.027 15.9991 107.027 15.9386C107.027 10.6298 107.017 5.30884 107.017 0C108.614 0 110.222 0 111.819 0Z" fill="white"/>
<path d="M135.415 26C136.521 22.6744 137.639 19.3609 138.745 16.0354C140.103 11.96 141.449 7.88465 142.817 3.8093C142.953 3.42233 142.911 3.15628 142.681 2.84186C142.024 1.9107 141.387 0.943256 140.739 0C143.798 0 146.868 0 149.927 0C149.958 0.0967442 150 0.181395 150.032 0.27814C152.297 7.05023 154.563 13.8223 156.828 20.5944C157.434 22.3963 158.008 24.1981 158.593 26.0121C156.818 26.0121 155.043 26.0121 153.268 26.0121C152.84 24.6698 152.412 23.3274 151.963 22.0093C151.911 21.84 151.681 21.6586 151.535 21.6465C148.539 21.6223 145.553 21.6223 142.556 21.6465C142.42 21.6465 142.191 21.7674 142.149 21.8884C141.7 23.2549 141.282 24.6456 140.854 26.0242C139.038 26 137.221 26 135.415 26ZM143.444 16.6642C145.803 16.6642 148.079 16.6642 150.428 16.6642C149.269 12.9637 148.131 9.33582 146.993 5.70791C146.952 5.70791 146.91 5.70791 146.878 5.72C145.73 9.33581 144.602 12.9637 143.444 16.6642Z" fill="white"/>
<path d="M124.348 26C123.961 25.9153 123.575 25.8307 123.178 25.7581C117.175 24.6819 113.197 18.6474 113.886 11.6335C114.502 5.38139 118.323 0.955344 123.732 0.229763C126.31 -0.120935 128.764 0.253949 131.009 1.85023C132.356 2.80558 133.452 4.07534 134.298 5.7079C133.045 6.51814 131.823 7.30418 130.696 8.02976C129.986 7.29209 129.39 6.48186 128.66 5.94976C125.611 3.73674 121.518 4.86139 119.722 8.50139C118.135 11.7181 118.188 15.0437 119.973 18.1637C121.884 21.4893 125.788 22.3479 128.994 20.28C129.088 20.2195 129.171 20.147 129.265 20.0986C129.819 19.7963 130.111 19.3609 130.038 18.587C129.975 17.8977 130.027 17.1842 130.027 16.3981C129.307 16.3981 128.639 16.4102 127.971 16.386C127.793 16.386 127.553 16.3377 127.459 16.2046C126.436 14.7656 125.433 13.3023 124.369 11.7665C127.803 11.7665 131.144 11.7665 134.517 11.7665C134.527 11.9842 134.538 12.1777 134.538 12.3833C134.538 15.1646 134.548 17.946 134.527 20.7274C134.527 21.066 134.381 21.4772 134.183 21.7191C132.168 24.1619 129.693 25.5284 126.801 25.8791C126.645 25.9032 126.498 25.9516 126.342 26C125.674 26 125.005 26 124.348 26Z" fill="white"/>
<path d="M22.7605 26C22.7605 25.9395 22.7501 25.8791 22.7501 25.8186C22.7501 17.3777 22.7501 8.92464 22.7501 0.483708C22.7501 0.386963 22.7709 0.290219 22.7814 0.157196C28.0434 0.157196 33.2846 0.157196 38.5676 0.157196C38.5676 1.7172 38.5676 3.2772 38.5676 4.90975C34.8925 4.90975 31.2383 4.90975 27.5214 4.90975C27.5214 6.74789 27.5214 8.53766 27.5214 10.3879C30.5388 10.3879 33.5456 10.3879 36.6047 10.3879C36.6047 12.0205 36.6047 13.5805 36.6047 15.213C33.5874 15.213 30.5701 15.213 27.511 15.213C27.511 17.2205 27.511 19.1674 27.511 21.1507C31.1756 21.1507 34.7985 21.1507 38.5258 21.1507C38.5258 22.7953 38.5258 24.4037 38.5258 26C33.2742 26 28.0121 26 22.7605 26Z" fill="white"/>
<path d="M64.3141 26C64.3037 24.5851 64.2828 23.1823 64.2933 21.7674C64.2933 21.5498 64.4186 21.3079 64.5438 21.1265C67.7491 16.0837 70.9544 11.0409 74.1701 5.99813C74.3685 5.68371 74.5668 5.3572 74.8278 4.92185C74.5355 4.92185 74.358 4.92185 74.1701 4.92185C71.0588 4.92185 67.937 4.90975 64.8257 4.93394C64.3872 4.93394 64.2619 4.78882 64.2724 4.29301C64.3037 2.9265 64.2828 1.55999 64.2828 0.157196C69.9521 0.157196 75.5587 0.157196 81.2488 0.157196C81.2488 1.07627 81.1862 2.00743 81.2697 2.91441C81.3741 4.09952 80.9982 5.0065 80.3822 5.92557C77.1457 10.8232 73.9613 15.7572 70.756 20.6791C70.6725 20.8 70.6098 20.933 70.495 21.1507C74.1074 21.1507 77.6468 21.1507 81.2384 21.1507C81.2384 22.8074 81.2384 24.4037 81.2384 26C75.59 26 69.9521 26 64.3141 26Z" fill="white"/>
<path d="M83.316 26C83.316 17.3293 83.316 8.6707 83.316 0C84.9135 0 86.5213 0 88.1187 0C88.1083 0.181395 88.0874 0.362791 88.0874 0.532093C88.0874 8.84 88.0874 17.1479 88.0874 25.4558C88.0874 25.6372 88.1083 25.8186 88.1187 25.9879C86.5213 26 84.9135 26 83.316 26Z" fill="white"/>
</g>
<defs>
<clipPath id="clip0_169_112">
<rect width="159" height="26" fill="white"/>
</clipPath>
</defs>
</svg>
