<svg width="172" height="28" viewBox="0 0 172 28" fill="none" xmlns="http://www.w3.org/2000/svg">
<path d="M55.1606 13.9999C55.145 15.0504 54.9598 16.091 54.6124 17.0799C54.2823 18.1095 53.7188 19.0448 52.9678 19.8099C52.1835 20.6342 51.2534 21.2993 50.2268 21.7699C48.9448 22.3061 47.5688 22.5682 46.1837 22.5399H39.3312C38.7829 22.5399 38.1662 22.6099 37.618 22.6099C37.618 22.5399 37.5495 22.3999 37.5495 22.3299V22.1199C37.5495 21.9099 37.5495 21.8399 37.618 21.7699C37.6865 21.6999 37.6865 21.6999 37.8236 21.6999C38.2272 21.6453 38.6202 21.5272 38.9885 21.3499C39.1366 21.2879 39.2622 21.1806 39.348 21.0427C39.4339 20.9048 39.4759 20.7431 39.4682 20.5799V7.2799C39.4851 7.13186 39.4621 6.98191 39.4017 6.84622C39.3414 6.71054 39.2459 6.59425 39.1256 6.5099C38.7151 6.31591 38.2744 6.19742 37.8236 6.1599C37.618 6.1599 37.618 6.0899 37.5495 6.0199C37.5199 5.90471 37.497 5.78784 37.481 5.6699V5.4599C37.481 5.3199 37.481 5.2499 37.5495 5.1799C37.8921 5.1799 38.1662 5.2499 38.5774 5.2499H46.1152C47.4182 5.26013 48.7121 5.47255 49.9527 5.8799C50.9754 6.32666 51.9056 6.96806 52.6937 7.7699C53.4424 8.54991 54.0256 9.47927 54.4069 10.4999C54.9029 11.5972 55.1601 12.7913 55.1606 13.9999ZM51.5973 14.5599C51.5967 13.3532 51.4353 12.1522 51.1176 10.9899C50.8713 10.0678 50.3997 9.2248 49.7471 8.5399C49.1434 7.89187 48.3891 7.41028 47.5543 7.1399C46.5787 6.82416 45.5624 6.659 44.5391 6.6499H42.8945V20.1599C42.8835 20.3263 42.9068 20.4933 42.963 20.6499L43.2371 20.9299C43.4491 20.9785 43.6557 21.0489 43.8539 21.1399C44.128 21.1399 44.4706 21.2099 44.9503 21.2099C47.1431 21.2099 48.8563 20.6499 49.8841 19.4599C51.0491 18.3189 51.5973 16.6389 51.5973 14.5389V14.5599Z" fill="white"/>
<path d="M65.0969 16.7999H59.6902L58.3197 20.4399C58.2652 20.522 58.2409 20.6212 58.2511 20.7199V20.9999C58.2464 21.0998 58.2697 21.1989 58.3183 21.2857C58.3668 21.3725 58.4386 21.4434 58.5253 21.4899C58.8677 21.66 59.2411 21.7554 59.6217 21.7699C59.8958 21.7699 59.9643 21.9799 59.9643 22.2599C59.9669 22.4259 59.9437 22.5913 59.8958 22.7499C59.4161 22.7499 59.0049 22.6799 58.4567 22.6799H55.7842C55.4416 22.6799 54.9619 22.7499 54.4822 22.7499C54.4822 22.6799 54.4137 22.5399 54.4137 22.4699V22.2599C54.4137 21.9099 54.4822 21.7699 54.7563 21.6999C55.1621 21.6559 55.5568 21.5373 55.9213 21.3499C56.0582 21.3023 56.1807 21.2192 56.2768 21.1088C56.3728 20.9984 56.4392 20.8644 56.4695 20.7199L62.7053 5.6699C62.9109 5.3899 63.048 5.1799 63.3221 5.1799H63.8703L70.1747 20.8599C70.2071 20.9956 70.2754 21.1195 70.3721 21.2182C70.4687 21.317 70.5901 21.3867 70.7229 21.4199C70.997 21.4899 71.3396 21.6299 71.6137 21.6999C71.8878 21.7699 71.9563 21.9099 71.9563 22.2599C71.9674 22.4263 71.944 22.5933 71.8878 22.7499C71.3396 22.7499 70.7914 22.6799 70.2432 22.6799H64.8296C64.8296 22.6099 64.7611 22.4699 64.7611 22.3999V22.1899C64.7611 21.9799 64.7611 21.9099 64.8296 21.8399L65.0352 21.6299C65.3864 21.5729 65.7308 21.4791 66.0631 21.3499C66.1625 21.314 66.2487 21.2477 66.31 21.1601C66.3713 21.0724 66.4047 20.9676 66.4057 20.8599C66.4057 20.7899 66.4057 20.5799 66.3372 20.5099L65.0969 16.7999ZM64.5487 15.5399L62.3558 9.5899L60.0945 15.5399H64.5487Z" fill="white"/>
<path d="M78.2546 20.6989V21.1889C78.2642 21.249 78.2879 21.3059 78.3237 21.3547C78.3595 21.4034 78.4063 21.4426 78.4601 21.4689C78.5917 21.593 78.7611 21.6671 78.9398 21.6789C79.2195 21.724 79.4946 21.7942 79.7621 21.8889C79.9677 21.8889 80.0362 22.0989 80.0362 22.3789V22.9389C79.488 22.9389 78.9398 22.8689 78.3231 22.8689H75.0338C74.4171 22.8689 73.8689 22.9389 73.3207 22.9389C73.3207 22.8689 73.2522 22.7289 73.2522 22.6589V22.3999C73.2522 22.1199 73.3207 21.9099 73.5263 21.9099C73.8104 21.8903 74.0889 21.8192 74.3486 21.6999C74.5542 21.5599 74.6912 21.6299 74.8283 21.4899C74.9653 21.3499 75.0338 21.2799 75.0338 21.2099C75.0667 21.0482 75.0896 20.8845 75.1024 20.7199V7.46888C75.1134 7.30245 75.0901 7.1355 75.0338 6.97888C75.0242 6.91874 75.0005 6.86187 74.9647 6.81311C74.9289 6.76436 74.8821 6.72517 74.8283 6.69888C74.6967 6.57478 74.5273 6.50064 74.3486 6.48888C74.069 6.44381 73.7938 6.37353 73.5263 6.27888C73.3207 6.20888 73.2522 6.06888 73.2522 5.78888V5.50888C73.2419 5.41021 73.2662 5.31102 73.3207 5.22888C73.8689 5.22888 74.4171 5.29888 75.0338 5.29888H78.3231C78.9398 5.29888 79.488 5.22888 80.0362 5.22888V5.78888C80.0488 5.88988 80.0289 5.99231 79.9794 6.08071C79.93 6.16911 79.8537 6.23867 79.7621 6.27888C79.5566 6.34888 79.2825 6.34888 79.1454 6.48888C79.0084 6.62888 78.8028 6.55888 78.6657 6.69888C78.5287 6.83888 78.4601 6.90888 78.4601 6.97888V7.46888L78.2546 20.6989Z" fill="white"/>
<path d="M87.5742 20.4191C87.5742 20.7691 87.8483 21.0491 88.328 21.1891C89.0745 21.3247 89.8311 21.395 90.5893 21.3991H91.6172C91.9953 21.4528 92.3803 21.3791 92.7136 21.1891C93.0223 21.0957 93.3044 20.9276 93.5359 20.6991C93.7993 20.4687 94.0099 20.1819 94.1527 19.8591C94.3599 19.4267 94.5429 18.9826 94.7009 18.5291C94.7694 18.3191 94.9065 18.3191 95.0435 18.3191C95.1401 18.3086 95.2372 18.3334 95.3176 18.3891C95.3861 18.4591 95.5917 18.4591 95.6603 18.5991C95.4679 19.2116 95.3527 19.8467 95.3176 20.4891C95.2491 21.1191 95.112 21.8191 95.0435 22.4491C95.0435 22.6591 94.975 22.7991 94.8379 22.7991C94.7575 22.8547 94.6604 22.8795 94.5638 22.8691H83.9423C83.3256 22.8691 82.7774 22.9391 82.2292 22.9391C82.2292 22.8691 82.1606 22.7291 82.1606 22.6591V22.4001C82.1481 22.2991 82.168 22.1966 82.2175 22.1082C82.2669 22.0198 82.3432 21.9503 82.4348 21.9101C82.901 21.8361 83.3598 21.719 83.8053 21.5601C83.9622 21.5115 84.0968 21.4072 84.1849 21.2659C84.2729 21.1246 84.3084 20.9558 84.2849 20.7901V7.70006C84.296 7.53363 84.2726 7.36668 84.2164 7.21006C84.2068 7.14992 84.1831 7.09304 84.1473 7.04429C84.1115 6.99554 84.0647 6.95635 84.0108 6.93006C83.8792 6.80596 83.7099 6.73182 83.5312 6.72006C83.2515 6.67498 82.9764 6.60471 82.7089 6.51006C82.5033 6.44006 82.3662 6.37006 82.3662 6.09006V5.81006C82.356 5.71139 82.3802 5.61219 82.4348 5.53006C82.983 5.53006 83.5312 5.60006 84.1479 5.60006H88.6706C88.9692 5.61441 89.2685 5.5909 89.5614 5.53006V6.09006C89.574 6.19106 89.5541 6.29349 89.5046 6.38189C89.4552 6.47028 89.3789 6.53984 89.2873 6.58006C88.8135 6.53318 88.3366 6.63061 87.9168 6.86006C87.8016 6.94924 87.7099 7.06633 87.6501 7.20077C87.5903 7.3352 87.5642 7.48274 87.5742 7.63006V20.4191Z" fill="white"/>
<path d="M100.456 15.5189L96.3446 7.4689C96.167 7.14668 95.9063 6.88037 95.5909 6.6989C95.266 6.48359 94.8802 6.38506 94.4944 6.4189C94.2889 6.4189 94.2203 6.2089 94.2203 5.8589V5.4389C94.563 5.4389 95.0427 5.5089 95.6594 5.5089H100.456C100.709 5.52371 100.963 5.50012 101.21 5.4389C101.218 5.55808 101.241 5.6757 101.279 5.7889V5.9989C101.279 6.2789 101.21 6.4889 101.004 6.4889C100.525 6.5589 100.251 6.5589 100.114 6.6989C100.036 6.71649 99.9659 6.76081 99.916 6.82449C99.8662 6.88816 99.8391 6.96736 99.8395 7.0489C99.8677 7.24852 99.9378 7.43954 100.045 7.6089L103.06 13.7689L106.075 8.0989C106.239 7.84929 106.334 7.55903 106.349 7.2589C106.354 7.15904 106.331 7.05988 106.282 6.97308C106.234 6.88628 106.162 6.81544 106.075 6.7689C105.743 6.63969 105.399 6.54586 105.047 6.4889C104.842 6.4889 104.705 6.2789 104.705 5.9989C104.706 5.83317 104.729 5.66836 104.773 5.5089C105.116 5.5089 105.596 5.5789 106.144 5.5789H108.885C109.365 5.5789 109.776 5.5089 110.255 5.5089C110.255 5.5789 110.324 5.7189 110.324 5.7889V5.9989C110.324 6.2789 110.255 6.4889 110.05 6.4889C109.597 6.51646 109.155 6.63543 108.748 6.8389C108.608 6.89486 108.481 6.9797 108.375 7.08811C108.269 7.19653 108.186 7.32616 108.131 7.4689L103.814 15.5189V20.7689C103.798 20.9355 103.821 21.1036 103.882 21.2589C103.951 21.3989 104.088 21.4689 104.157 21.5389C104.315 21.6621 104.506 21.7351 104.705 21.7489C105.007 21.7931 105.305 21.8633 105.596 21.9589C105.667 21.971 105.737 21.9946 105.801 22.0289C105.863 22.1338 105.888 22.2576 105.87 22.3789V22.8689H104.362C103.882 22.8689 103.54 22.7989 103.06 22.7989H100.867C100.478 22.7873 100.088 22.8107 99.7024 22.8689H98.4689V22.3999C98.4689 22.1899 98.4689 22.1199 98.5375 22.0499C98.606 21.9799 98.606 21.9799 98.7431 21.9799C99.0478 21.9509 99.3474 21.8802 99.6339 21.7699C99.908 21.6299 100.114 21.6999 100.182 21.5599C100.388 21.4899 100.456 21.3499 100.456 21.2799C100.456 21.2099 100.525 20.9999 100.525 20.7899L100.456 15.5189Z" fill="white"/>
<path d="M118.272 23.0999C116.969 23.0897 115.675 22.8773 114.435 22.4699C113.423 22.0404 112.512 21.3962 111.762 20.5799C111.069 19.7567 110.534 18.8066 110.186 17.7799C109.832 16.6721 109.647 15.5152 109.638 14.3499C109.659 13.2772 109.844 12.2144 110.186 11.1999C110.546 10.143 111.105 9.16802 111.831 8.32994C112.587 7.42466 113.553 6.72684 114.64 6.29994C115.934 5.71368 117.338 5.42683 118.752 5.45994C119.579 5.45439 120.404 5.52467 121.219 5.66994C122.052 5.80442 122.876 5.99144 123.686 6.22994C123.694 6.819 123.763 7.40552 123.891 7.97994C123.978 8.71812 124.139 9.44525 124.371 10.1499C124.253 10.1453 124.136 10.1693 124.029 10.2199H123.754C123.549 10.2199 123.48 10.2199 123.412 10.1499C123.343 10.0799 123.206 10.0799 123.206 9.86994C123.055 9.35789 122.848 8.8648 122.589 8.39994C122.369 8.05016 122.091 7.74223 121.767 7.48994C121.493 7.34994 121.013 7.13994 120.602 6.92994C120.083 6.82108 119.556 6.7509 119.026 6.71994C118.182 6.73388 117.347 6.89976 116.559 7.20994C115.834 7.50546 115.197 7.9878 114.709 8.60994C114.21 9.25408 113.837 9.99101 113.613 10.7799C113.347 11.7114 113.231 12.6806 113.27 13.6499C113.279 14.7182 113.441 15.7793 113.75 16.7999C113.999 17.7 114.392 18.5515 114.915 19.3199C115.39 20.0243 116.024 20.6007 116.765 20.9999C117.506 21.3969 118.327 21.6126 119.163 21.6299C119.741 21.6519 120.32 21.5811 120.876 21.4199C121.337 21.3065 121.777 21.1174 122.178 20.8599C122.527 20.5595 122.828 20.2052 123.069 19.8099C123.362 19.3437 123.615 18.8517 123.823 18.3399C123.891 18.1299 123.891 18.0599 124.097 18.0599C124.2 17.9964 124.321 17.9717 124.44 17.9899H124.782C124.851 17.9899 125.056 18.0599 125.125 18.0599C125.056 18.3399 124.919 18.6899 124.782 19.1099C124.645 19.5299 124.508 19.8799 124.44 20.2299C124.371 20.5799 124.166 20.9999 124.097 21.4199C124.029 21.8399 123.891 22.1899 123.823 22.5399C122.988 22.7252 122.14 22.8422 121.287 22.8899C120.292 23.0667 119.282 23.1371 118.272 23.0999Z" fill="white"/>
<path d="M126.427 14.1891C126.424 13.0026 126.682 11.8307 127.181 10.7591C127.652 9.71645 128.302 8.76821 129.099 7.95908C129.894 7.1653 130.823 6.52498 131.84 6.06908C132.903 5.61819 134.048 5.40344 135.198 5.43908C136.391 5.42524 137.577 5.6389 138.693 6.06908C139.729 6.4903 140.664 7.13497 141.434 7.95908C142.211 8.77074 142.838 9.71936 143.284 10.7591C143.738 11.8902 143.948 13.1077 143.901 14.3291C143.903 15.5155 143.646 16.6875 143.147 17.7591C142.71 18.8215 142.056 19.7762 141.228 20.5591C140.421 21.3695 139.467 22.0114 138.419 22.4491C137.356 22.9 136.211 23.1147 135.061 23.0791C133.868 23.0929 132.683 22.8793 131.566 22.4491C130.53 22.0279 129.595 21.3832 128.825 20.5591C128.07 19.7292 127.446 18.7846 126.975 17.7591C126.604 16.6072 126.419 15.4016 126.427 14.1891ZM135.472 21.7491C136.141 21.7449 136.799 21.5769 137.391 21.2591C137.993 20.9206 138.528 20.4694 138.967 19.9291C139.429 19.349 139.778 18.6836 139.995 17.9691C140.247 17.1789 140.363 16.3499 140.338 15.5191C140.37 14.3654 140.255 13.2123 139.995 12.0891C139.786 11.0996 139.415 10.153 138.899 9.28908C138.437 8.56404 137.858 7.92485 137.185 7.39908C136.441 6.94638 135.584 6.72728 134.719 6.76908C134.128 6.74274 133.54 6.86283 133.005 7.11908C132.428 7.37333 131.93 7.78503 131.566 8.30908C131.105 8.86354 130.755 9.50591 130.538 10.1991C130.281 11.0122 130.165 11.8651 130.196 12.7191C130.164 13.9422 130.279 15.1646 130.538 16.3591C130.766 17.3649 131.135 18.3316 131.635 19.2291C132.058 19.9841 132.644 20.6305 133.348 21.1191C133.968 21.5632 134.715 21.7848 135.472 21.7491Z" fill="white"/>
<path d="M150.83 20.9089V21.3989C150.839 21.459 150.863 21.5159 150.899 21.5647C150.935 21.6134 150.981 21.6526 151.035 21.6789C151.175 21.7902 151.34 21.8625 151.515 21.8889C151.795 21.934 152.07 22.0042 152.337 22.0989C152.543 22.0989 152.611 22.3089 152.611 22.5889V23.1489C152.063 23.1489 151.515 23.0789 150.898 23.0789H147.609C146.992 23.0789 146.444 23.1489 145.896 23.1489C145.896 23.0789 145.827 22.9389 145.827 22.8689V22.5889C145.827 22.3089 145.896 22.0989 146.101 22.0989C146.385 22.0793 146.664 22.0082 146.924 21.8889C147.129 21.8189 147.266 21.8189 147.403 21.6789C147.54 21.5389 147.609 21.4689 147.609 21.3989C147.642 21.2372 147.665 21.0735 147.677 20.9089V7.6999C147.688 7.53347 147.665 7.36652 147.609 7.2099C147.599 7.14976 147.576 7.09288 147.54 7.04413C147.504 6.99538 147.457 6.95619 147.403 6.9299C147.272 6.8058 147.102 6.73166 146.924 6.7199C146.644 6.67482 146.369 6.60455 146.101 6.5099C145.896 6.4399 145.827 6.2999 145.827 6.0199V5.7399C145.817 5.64123 145.841 5.54203 145.896 5.4599C146.444 5.4599 146.992 5.5299 147.609 5.5299H150.898C151.515 5.5299 152.063 5.4599 152.611 5.4599V6.0199C152.624 6.1209 152.604 6.22333 152.554 6.31173C152.505 6.40012 152.429 6.46968 152.337 6.5099C152.053 6.52947 151.775 6.60059 151.515 6.7199C151.309 6.7899 151.172 6.7899 151.035 6.9299C150.898 7.0699 150.83 7.1399 150.83 7.2099V20.9299V20.9089Z" fill="white"/>
<path d="M168.297 17.1989V7.81892C168.311 7.66475 168.288 7.50943 168.229 7.36662C168.17 7.22381 168.078 7.09789 167.961 6.99992C167.537 6.77502 167.068 6.65513 166.591 6.64992C166.486 6.62231 166.395 6.55809 166.332 6.4685C166.269 6.37892 166.24 6.26968 166.248 6.15992V5.94992C166.248 5.80992 166.248 5.73992 166.317 5.66992C166.748 5.72812 167.183 5.75153 167.618 5.73992H170.497C170.839 5.73992 171.319 5.66992 171.662 5.66992V6.15992C171.662 6.43992 171.593 6.64992 171.387 6.64992C170.982 6.6939 170.587 6.81248 170.222 6.99992C170.119 7.09567 170.04 7.2159 169.992 7.35012C169.944 7.48434 169.929 7.62846 169.948 7.76992V23.1699H169.263C169.195 23.1699 168.989 23.1699 168.92 23.0999C168.768 22.9731 168.608 22.8562 168.441 22.7499L158.162 9.51992V21.4199C158.172 21.4801 158.195 21.5369 158.231 21.5857C158.267 21.6344 158.314 21.6736 158.367 21.6999C158.507 21.8112 158.672 21.8835 158.847 21.9099C159.127 21.955 159.402 22.0253 159.669 22.1199C159.741 22.132 159.811 22.1556 159.875 22.1899C159.937 22.2948 159.961 22.4187 159.944 22.5399C159.946 22.7059 159.923 22.8713 159.875 23.0299C159.395 23.0299 159.053 22.9599 158.71 22.9599H155.969C155.489 22.9599 155.078 23.0299 154.667 23.0299C154.667 22.9599 154.599 22.8199 154.599 22.7499V22.5399C154.599 22.3299 154.599 22.2599 154.667 22.1899C154.736 22.1199 154.736 22.1199 154.873 22.1199C155.317 22.0481 155.753 21.9309 156.175 21.7699C156.278 21.6742 156.358 21.5539 156.405 21.4197C156.453 21.2855 156.468 21.1414 156.449 20.9999V7.53892C156.46 7.41867 156.441 7.29745 156.393 7.18706C156.345 7.07666 156.27 6.98084 156.175 6.90892C155.819 6.69986 155.42 6.57991 155.01 6.55892C154.804 6.48892 154.736 6.34892 154.736 6.06892V5.59992H158.162C158.506 5.57728 158.852 5.60081 159.19 5.66992C159.395 5.66992 159.464 5.73992 159.669 5.94992L168.297 17.1989Z" fill="white"/>
<path d="M2.53841 4.48C3.74948 4.48 4.73124 3.47712 4.73124 2.24C4.73124 1.00288 3.74948 0 2.53841 0C1.32734 0 0.345581 1.00288 0.345581 2.24C0.345581 3.47712 1.32734 4.48 2.53841 4.48Z" fill="#0059BE"/>
<path d="M2.53841 10.3602C3.74948 10.3602 4.73124 9.35731 4.73124 8.12019C4.73124 6.88307 3.74948 5.88019 2.53841 5.88019C1.32734 5.88019 0.345581 6.88307 0.345581 8.12019C0.345581 9.35731 1.32734 10.3602 2.53841 10.3602Z" fill="#0059BE"/>
<path d="M2.53841 16.24C3.74948 16.24 4.73124 15.2371 4.73124 14C4.73124 12.7629 3.74948 11.76 2.53841 11.76C1.32734 11.76 0.345581 12.7629 0.345581 14C0.345581 15.2371 1.32734 16.24 2.53841 16.24Z" fill="#0059BE"/>
<path d="M2.53841 22.1202C3.74948 22.1202 4.73124 21.1173 4.73124 19.8802C4.73124 18.6431 3.74948 17.6402 2.53841 17.6402C1.32734 17.6402 0.345581 18.6431 0.345581 19.8802C0.345581 21.1173 1.32734 22.1202 2.53841 22.1202Z" fill="#FFD500"/>
<path d="M2.53841 28C3.74948 28 4.73124 26.9971 4.73124 25.76C4.73124 24.5229 3.74948 23.52 2.53841 23.52C1.32734 23.52 0.345581 24.5229 0.345581 25.76C0.345581 26.9971 1.32734 28 2.53841 28Z" fill="#FFD500"/>
<path d="M2.53841 4.48C3.74948 4.48 4.73124 3.47712 4.73124 2.24C4.73124 1.00288 3.74948 0 2.53841 0C1.32734 0 0.345581 1.00288 0.345581 2.24C0.345581 3.47712 1.32734 4.48 2.53841 4.48Z" fill="#0059BE"/>
<path d="M2.53841 10.3602C3.74948 10.3602 4.73124 9.35731 4.73124 8.12019C4.73124 6.88307 3.74948 5.88019 2.53841 5.88019C1.32734 5.88019 0.345581 6.88307 0.345581 8.12019C0.345581 9.35731 1.32734 10.3602 2.53841 10.3602Z" fill="#0059BE"/>
<path d="M2.53841 16.24C3.74948 16.24 4.73124 15.2371 4.73124 14C4.73124 12.7629 3.74948 11.76 2.53841 11.76C1.32734 11.76 0.345581 12.7629 0.345581 14C0.345581 15.2371 1.32734 16.24 2.53841 16.24Z" fill="#0059BE"/>
<path d="M2.53841 22.1202C3.74948 22.1202 4.73124 21.1173 4.73124 19.8802C4.73124 18.6431 3.74948 17.6402 2.53841 17.6402C1.32734 17.6402 0.345581 18.6431 0.345581 19.8802C0.345581 21.1173 1.32734 22.1202 2.53841 22.1202Z" fill="#FFD500"/>
<path d="M2.53841 28C3.74948 28 4.73124 26.9971 4.73124 25.76C4.73124 24.5229 3.74948 23.52 2.53841 23.52C1.32734 23.52 0.345581 24.5229 0.345581 25.76C0.345581 26.9971 1.32734 28 2.53841 28Z" fill="#FFD500"/>
<path d="M8.295 4.48C9.50607 4.48 10.4878 3.47712 10.4878 2.24C10.4878 1.00288 9.50607 0 8.295 0C7.08394 0 6.10217 1.00288 6.10217 2.24C6.10217 3.47712 7.08394 4.48 8.295 4.48Z" fill="#0059BE"/>
<path d="M8.295 10.36C9.50607 10.36 10.4878 9.35712 10.4878 8.12001C10.4878 6.88289 9.50607 5.88 8.295 5.88C7.08394 5.88 6.10217 6.88289 6.10217 8.12001C6.10217 9.35712 7.08394 10.36 8.295 10.36Z" fill="#0059BE"/>
<path d="M8.295 16.24C9.50607 16.24 10.4878 15.2371 10.4878 14C10.4878 12.7629 9.50607 11.76 8.295 11.76C7.08394 11.76 6.10217 12.7629 6.10217 14C6.10217 15.2371 7.08394 16.24 8.295 16.24Z" fill="#0059BE"/>
<path d="M8.295 22.12C9.50607 22.12 10.4878 21.1171 10.4878 19.88C10.4878 18.6429 9.50607 17.64 8.295 17.64C7.08394 17.64 6.10217 18.6429 6.10217 19.88C6.10217 21.1171 7.08394 22.12 8.295 22.12Z" fill="#FFD500"/>
<path d="M8.295 28C9.50607 28 10.4878 26.9971 10.4878 25.76C10.4878 24.5229 9.50607 23.52 8.295 23.52C7.08394 23.52 6.10217 24.5229 6.10217 25.76C6.10217 26.9971 7.08394 28 8.295 28Z" fill="#FFD500"/>
<path d="M14.0518 4.48C15.2629 4.48 16.2447 3.47712 16.2447 2.24C16.2447 1.00288 15.2629 0 14.0518 0C12.8408 0 11.859 1.00288 11.859 2.24C11.859 3.47712 12.8408 4.48 14.0518 4.48Z" fill="#0059BE"/>
<path d="M14.0518 10.3602C15.2629 10.3602 16.2447 9.35731 16.2447 8.12019C16.2447 6.88307 15.2629 5.88019 14.0518 5.88019C12.8408 5.88019 11.859 6.88307 11.859 8.12019C11.859 9.35731 12.8408 10.3602 14.0518 10.3602Z" fill="#0059BE"/>
<path d="M14.0518 16.24C15.2629 16.24 16.2447 15.2371 16.2447 14C16.2447 12.7629 15.2629 11.76 14.0518 11.76C12.8408 11.76 11.859 12.7629 11.859 14C11.859 15.2371 12.8408 16.24 14.0518 16.24Z" fill="#0059BE"/>
<path d="M14.0518 22.1202C15.2629 22.1202 16.2447 21.1173 16.2447 19.8802C16.2447 18.6431 15.2629 17.6402 14.0518 17.6402C12.8408 17.6402 11.859 18.6431 11.859 19.8802C11.859 21.1173 12.8408 22.1202 14.0518 22.1202Z" fill="#FFD500"/>
<path d="M19.807 10.3602C21.018 10.3602 21.9998 9.35731 21.9998 8.12019C21.9998 6.88307 21.018 5.88019 19.807 5.88019C18.5959 5.88019 17.6141 6.88307 17.6141 8.12019C17.6141 9.35731 18.5959 10.3602 19.807 10.3602Z" fill="#0059BE"/>
<path d="M19.807 16.24C21.018 16.24 21.9998 15.2371 21.9998 14C21.9998 12.7629 21.018 11.76 19.807 11.76C18.5959 11.76 17.6141 12.7629 17.6141 14C17.6141 15.2371 18.5959 16.24 19.807 16.24Z" fill="#0059BE"/>
<path d="M19.807 22.1202C21.018 22.1202 21.9998 21.1173 21.9998 19.8802C21.9998 18.6431 21.018 17.6402 19.807 17.6402C18.5959 17.6402 17.6141 18.6431 17.6141 19.8802C17.6141 21.1173 18.5959 22.1202 19.807 22.1202Z" fill="#FFD500"/>
<path d="M14.0518 28C15.2629 28 16.2447 26.9971 16.2447 25.76C16.2447 24.5229 15.2629 23.52 14.0518 23.52C12.8408 23.52 11.859 24.5229 11.859 25.76C11.859 26.9971 12.8408 28 14.0518 28Z" fill="#FFD500"/>
<path d="M25.5636 28C26.7746 28 27.7564 26.9971 27.7564 25.76C27.7564 24.5229 26.7746 23.52 25.5636 23.52C24.3525 23.52 23.3707 24.5229 23.3707 25.76C23.3707 26.9971 24.3525 28 25.5636 28Z" fill="white"/>
</svg>
