<svg width="118" height="46" viewBox="0 0 118 46" fill="none" xmlns="http://www.w3.org/2000/svg">
<path d="M105.465 35.9372L99.414 25.0828H105.465L108.059 30.2929L111.517 25.0828H118L110.652 35.9372V43.7524H105.465V35.9372Z" fill="#CB3919"/>
<path d="M0 43.7525V24.6488L10.3736 35.069L20.7472 24.6488V43.7525H14.6959V38.5424L10.3736 43.7525L6.05127 38.5424V43.7525H0Z" fill="#CB3919"/>
<path fill-rule="evenodd" clip-rule="evenodd" d="M31.9854 44.621C37.7146 44.621 42.359 39.9558 42.359 34.2008C42.359 28.4459 37.7146 23.7806 31.9854 23.7806C26.2562 23.7806 21.6118 28.4459 21.6118 34.2008C21.6118 39.9558 26.2562 44.621 31.9854 44.621ZM37.605 37.6745C39.2761 37.6745 40.6307 36.3138 40.6307 34.6353C40.6307 32.9568 39.2761 31.5961 37.605 31.5961C35.934 31.5961 34.5794 32.9568 34.5794 34.6353C34.5794 36.3138 35.934 37.6745 37.605 37.6745Z" fill="#CB3919"/>
<path d="M44.0881 43.7527V23.7806L57.0551 34.2008V24.649H63.1064V45.4894L50.1394 35.9375V43.7527H44.0881Z" fill="#CB3919"/>
<path d="M65.7007 44.621V24.649H71.752V31.1616L79.1 24.2148L82.5579 28.5565L76.9388 34.2008L82.5579 39.8451L78.6678 44.621L71.752 37.6742V44.621H65.7007Z" fill="#CB3919"/>
<path d="M83.8532 43.7525V24.6488H97.6847V30.7273H89.9045V32.464H97.6847V36.8057H89.9045V38.5424H97.6847V43.7525H83.8532Z" fill="#CB3919"/>
<path fill-rule="evenodd" clip-rule="evenodd" d="M9.50913 0.335083V20.3072H14.6959V12.0578L27.6629 22.0439V1.20344H22.4761V10.7553L9.50913 0.335083ZM0 1.20344V20.3072H6.05126V1.20344H0ZM38.901 1.20344V6.41355C39.1891 6.703 39.9384 7.62924 40.6299 9.0186C41.4944 10.7553 41.9266 13.7945 40.6299 16.8338C39.3332 19.873 36.3076 21.1755 33.7142 21.1755C31.6395 21.1755 29.3919 19.4388 28.5274 18.5705L32.4175 14.2287C32.7056 14.5182 33.5413 15.0971 34.5787 15.0971C35.8754 15.0971 36.3076 13.3604 36.3076 12.492C36.3076 11.6237 35.0109 9.88696 33.7142 9.88696C32.4175 9.88696 29.3919 8.58443 29.3919 5.5452C29.3919 3.11381 32.2734 1.63761 33.7142 1.20344H38.901ZM49.2746 1.20344H43.2233V20.3072H49.2746V1.20344ZM52.7325 1.20344H60.9449C61.2049 1.28179 61.5001 1.346 61.8241 1.41648C63.2957 1.73659 65.362 2.18607 67.4284 4.67684C69.5895 7.2819 69.5895 11.6237 68.2928 15.0971C67.2555 17.8758 62.962 19.7283 60.9449 20.3072H52.7325V1.20344ZM83.8532 1.20344H70.8862V20.3072H83.8532V14.2287H76.073V13.3604H83.8532V8.15025H76.073V7.2819H83.8532V1.20344ZM87.3111 1.20344H96.388C98.4627 1.20344 100.134 2.07179 100.71 2.50596C102.007 3.51904 104.6 6.23988 104.6 9.0186C104.6 11.7973 102.007 14.2287 100.71 15.0971H102.872C103.909 15.0971 105.321 14.5182 105.897 14.2287L101.575 21.1755C100.422 21.0308 97.7712 20.5677 96.388 19.873C95.0049 19.1783 93.2183 18.1363 92.4979 17.7021V20.3072H87.3111V1.20344ZM67.4279 10.7557C67.4279 12.1945 66.2668 13.3608 64.8345 13.3608C63.4023 13.3608 62.2411 12.1945 62.2411 10.7557C62.2411 9.317 63.4023 8.15067 64.8345 8.15067C66.2668 8.15067 67.4279 9.317 67.4279 10.7557ZM100.277 13.3608C101.709 13.3608 102.87 12.1945 102.87 10.7557C102.87 9.31701 101.709 8.15069 100.277 8.15069C98.8445 8.15069 97.6833 9.31701 97.6833 10.7557C97.6833 12.1945 98.8445 13.3608 100.277 13.3608Z" fill="white"/>
</svg>
