<svg width="146" height="33" viewBox="0 0 146 33" fill="none" xmlns="http://www.w3.org/2000/svg">
<path d="M26.5439 10.8845C26.5439 10.0338 26.9631 9.65941 27.364 9.56105C27.4765 9.51102 27.6059 9.48513 27.6706 9.20905L27.7663 8.81219C27.8464 8.48607 27.6861 8.43604 27.5581 8.43604H24.1835C24.0386 8.43604 23.9598 8.51196 23.9106 8.61031L23.7812 9.06066C23.7165 9.26082 23.7502 9.4627 23.9598 9.51102C24.7461 9.75949 24.9867 9.90788 24.9867 10.8828V25.8997C24.9867 26.9488 24.8741 28.0221 24.6969 28.5984C24.552 29.0712 24.2468 29.5474 23.8937 29.6716V30.6983C25.1625 30.6983 26.5453 29.5474 26.5453 25.2751V10.8845H26.5439Z" fill="white"/>
<path d="M31.2662 9.78364H33.6097C34.6872 9.78364 34.9291 11.7852 35.1711 11.4815L35.4581 11.1088C35.5087 11.0363 35.541 10.9604 35.541 10.8845V9.06066C35.5706 8.70866 35.3807 8.43604 35.0726 8.43604H28.7904C28.6948 8.43604 28.5822 8.48607 28.5147 8.70866L28.3881 9.13658C28.3079 9.41094 28.4528 9.48513 28.6948 9.56105C29.3854 9.73533 29.7034 10.1098 29.7034 11.0847V24.2018C29.7034 25.9515 30.0606 25.9273 30.5586 25.9273H35.5242C35.9602 25.9273 36.2599 25.7013 36.2599 25.301V23.0268C36.2599 22.9267 36.2303 22.8301 36.1642 22.8007L35.7661 22.6023C35.541 22.5022 35.3146 24.578 33.6589 24.578H32.2438C31.5559 24.578 31.2662 24.3537 31.2662 22.2555V17.1049H34.4467C34.7055 17.1049 34.863 17.0307 34.9601 16.7563L35.1852 16.1334C35.2682 15.9074 35.1852 15.7573 34.9756 15.7573H31.2662V9.78364Z" fill="white"/>
<path fill-rule="evenodd" clip-rule="evenodd" d="M39.3292 9.78364H40.7597C41.8654 9.78364 42.6855 10.5101 42.7192 13.0069C42.7488 15.7573 41.6741 17.0065 40.439 16.9582H39.3306V9.78364H39.3292ZM45.7253 25.2009C44.9995 24.6746 43.8291 21.5756 42.2986 17.5811C43.424 16.5821 44.275 14.7047 44.275 12.7843C44.261 9.73533 43.0203 8.43604 41.0805 8.43604H36.8492C36.7578 8.43604 36.6438 8.48607 36.5805 8.70866L36.4511 9.13658C36.3709 9.41094 36.5158 9.48513 36.7578 9.56105C37.447 9.73533 37.7706 10.1098 37.7706 11.0847V23.4771C37.7706 24.3261 37.3514 24.7022 36.9505 24.8006C36.8379 24.8523 36.7085 24.8765 36.6452 25.1526L36.5482 25.5512C36.468 25.8756 36.6298 25.9273 36.7578 25.9273H40.1296C40.2758 25.9273 40.356 25.8514 40.4039 25.7531L40.5305 25.2992C40.598 25.1025 40.5614 24.9007 40.356 24.8506C39.5683 24.5987 39.3292 24.452 39.3292 23.4754V18.3041H40.9975L43.4409 25.3251C43.5042 25.527 43.6195 25.9273 43.8755 25.9273H45.7253V25.2009Z" fill="white"/>
<path d="M47.6966 10.8847C47.6966 10.034 48.1158 9.65959 48.5167 9.56124C48.6292 9.5112 48.7586 9.48532 48.8219 9.20924L48.9176 8.81238C48.9992 8.48626 48.8374 8.43622 48.7094 8.43622H45.3376C45.1913 8.43622 45.1097 8.51214 45.0619 8.61049L44.9325 9.06085C44.8692 9.261 44.9029 9.46289 45.1097 9.5112C45.8989 9.75967 46.138 9.90806 46.138 10.883V19.2533C46.138 23.027 47.1044 26.226 50.3651 26.226C52.423 26.226 54.3684 24.5005 54.3684 19.1774V10.8847C54.3684 10.034 54.7862 9.65959 55.1885 9.56124C55.3011 9.5112 55.4291 9.48532 55.4924 9.20924L55.5894 8.81238C55.671 8.48626 55.5078 8.43622 55.3812 8.43622H52.5679C52.423 8.43622 52.3442 8.51214 52.295 8.61049L52.167 9.06085C52.1023 9.261 52.1346 9.46289 52.3442 9.5112C53.132 9.75967 53.3725 9.90806 53.3725 10.883V19.2309C53.3725 22.7267 52.5046 24.5281 50.3988 24.5281C48.3901 24.5281 47.698 21.6276 47.698 19.1774V10.8847H47.6966Z" fill="white"/>
<path d="M61.7416 11.7091C61.7909 11.6108 61.8373 11.5314 61.8373 11.433V9.58505C61.8696 9.16058 61.6136 8.93799 61.1311 8.63775C60.6472 8.33579 60.0705 8.13391 59.332 8.13391C57.2093 8.13391 55.9067 10.5323 55.9067 12.282C55.9067 14.7305 57.2248 15.8814 58.1729 16.9287C59.1688 18.0313 60.8076 19.5774 60.6965 21.8291C60.6472 23.577 59.8454 24.9505 58.5429 24.9505C57.772 24.9505 57.0476 24.4519 56.7437 23.3493C56.3414 22.3036 56.3414 21.2045 56.1178 21.3029L55.6817 21.5254C55.5213 21.6272 55.586 22.0017 55.586 22.2743V24.7003C55.586 25.3509 55.586 25.3733 56.4216 25.7753C56.9364 26.0238 57.5948 26.2257 58.4964 26.2257C60.3124 26.2257 62.3057 24.5761 62.241 21.377C62.1777 18.5783 61.179 17.3032 59.4291 15.4793C58.1096 14.1058 57.2754 13.0809 57.4513 11.2812C57.5807 10.0078 58.4177 9.25893 59.204 9.25893C59.927 9.25893 60.4081 9.63509 60.7302 10.66C60.9384 11.3071 61.2451 12.3338 61.3731 12.1595L61.7416 11.7091Z" fill="white"/>
<path fill-rule="evenodd" clip-rule="evenodd" d="M65.9178 19.255L67.814 11.7095L69.6778 19.255H65.9178ZM73.8416 25.1752C73.8725 25.0268 73.7924 24.8508 73.6165 24.7783C72.7331 24.4022 72.6839 24.5281 72.3618 23.2789C71.2843 19.2067 69.9339 14.1355 68.8254 9.13677C68.7776 8.76234 68.6482 8.43622 68.4231 8.43622H66.1091C65.9319 8.43622 65.787 8.46038 65.7237 8.68641L65.6435 9.03496C65.417 9.63716 66.1738 9.48359 66.5438 9.98398C66.7196 10.2325 67.1219 10.6069 66.8321 11.7319L63.8739 23.2772C63.5377 24.4246 63.4252 24.5765 62.7486 24.799C62.508 24.9008 62.3786 24.9509 62.3308 25.151L62.2534 25.4754C62.1057 25.9983 62.4447 25.9258 62.7486 25.9258H65.1596C65.3861 25.9258 65.4325 25.6514 65.4817 25.5272L65.576 25.2753C65.7856 24.7007 64.5154 24.9233 64.822 23.7258L65.6097 20.6044H70.014L70.6878 23.4756C71.0254 24.9492 70.1589 24.7266 70.0295 25.101L69.8846 25.5738C69.7876 25.8481 69.9479 25.9241 70.0914 25.9241H73.2747C73.4027 25.9241 73.5799 25.8965 73.6447 25.7239L73.8416 25.1752Z" fill="white"/>
<path d="M74.4974 25.5512C74.4172 25.8756 74.5776 25.9273 74.7056 25.9273H81.5364C81.9711 25.9273 82.2763 25.7013 82.2763 25.301V23.0268C82.2763 22.9267 82.244 22.8301 82.1793 22.8007L81.777 22.6023C81.5533 22.5022 81.3282 24.578 79.6726 24.578H78.2575C77.5668 24.578 77.277 24.3537 77.277 22.2555V10.8845C77.277 10.0338 77.6948 9.65941 78.0971 9.56105C78.2096 9.51102 78.3376 9.48513 78.4038 9.20905L78.4994 8.81219C78.5796 8.48607 78.4192 8.43604 78.2912 8.43604H74.9166C74.7703 8.43604 74.6915 8.51196 74.6437 8.61031L74.5143 9.06066C74.4496 9.26082 74.4819 9.4627 74.6915 9.51102C75.4793 9.75949 75.7198 9.90788 75.7198 10.8828V23.4754C75.7198 24.3243 75.302 24.7005 74.8997 24.7989C74.7872 24.8506 74.6592 24.8748 74.5931 25.1509L74.4974 25.5512Z" fill="white"/>
<path d="M84.5058 9.78364H86.8521C87.9296 9.78364 88.1702 11.7852 88.4107 11.4815L88.6991 11.1088C88.7483 11.0363 88.7807 10.9604 88.7807 10.8845V9.06066C88.813 8.70866 88.6203 8.43604 88.3151 8.43604H82.03C81.9344 8.43604 81.8205 8.48607 81.76 8.70866L81.6277 9.13658C81.5476 9.41094 81.6924 9.48513 81.9344 9.56105C82.6251 9.73533 82.9472 10.1098 82.9472 11.0847V24.2018C82.9472 25.9515 83.3003 25.9273 83.7982 25.9273H88.7638C89.1985 25.9273 89.5037 25.7013 89.5037 25.301V23.0268C89.5037 22.9267 89.4713 22.8301 89.4066 22.8007L89.0057 22.6023C88.7807 22.5022 88.5556 24.578 86.8999 24.578H85.4848C84.7942 24.578 84.5058 24.3537 84.5058 22.2555V17.1049H87.6877C87.9465 17.1049 88.1069 17.0307 88.2025 16.7563L88.4262 16.1334C88.5078 15.9074 88.4262 15.7573 88.2194 15.7573H84.5058V9.78364Z" fill="white"/>
<path d="M102.26 11.0848C102.26 10.0858 102.597 9.80971 103.079 9.65787C103.256 9.58367 103.417 9.5319 103.48 9.28343L103.577 8.83308C103.657 8.48453 103.512 8.43622 103.352 8.43622H101.505C101.278 8.43622 101.038 8.56218 100.83 9.23339L96.6829 22.53L92.7794 9.46288C92.5065 8.53457 92.3939 8.43622 91.865 8.43622H89.7255C89.5806 8.43622 89.5004 8.51214 89.4554 8.61049L89.3232 9.06085C89.2571 9.28516 89.2908 9.46288 89.613 9.56124C89.9351 9.65959 90.4977 10.034 91.0421 10.9347V23.4773C91.0421 24.3263 90.6229 24.7024 90.222 24.8008C90.1123 24.8525 89.9801 24.8767 89.9196 25.1528L89.8211 25.5514C89.7396 25.8757 89.9041 25.9275 90.0293 25.9275H92.8441C92.9862 25.9275 93.0663 25.8516 93.117 25.7532L93.2436 25.2994C93.3069 25.1027 93.2745 24.9008 93.0663 24.8508C92.2772 24.6023 92.0381 24.4522 92.0381 23.4756V12.6826H92.069L95.7657 25.1269C95.8952 25.5772 96.0232 25.9275 96.1202 25.9275H96.4423C96.5718 25.9275 96.6505 25.6756 96.749 25.3754L100.669 12.6844H100.702V23.479C100.702 24.328 100.283 24.7041 99.8803 24.8025C99.7691 24.8543 99.6397 24.8784 99.5764 25.1545L99.4794 25.5531C99.3992 25.8775 99.5609 25.9292 99.689 25.9292H103.064C103.207 25.9292 103.287 25.8533 103.335 25.755L103.463 25.3012C103.529 25.1045 103.495 24.9026 103.287 24.8525C102.499 24.6041 102.26 24.4539 102.26 23.4773V11.0848Z" fill="white"/>
<path d="M110.563 9.78363H111.929C113.166 9.78363 114.194 10.8345 114.194 13.3813C114.194 15.8574 113.263 17.5069 111.495 17.5069C111.35 17.5069 111.253 17.5811 111.35 17.8313L111.575 18.4059C113.599 18.6302 115.722 17.0825 115.753 13.0845C115.785 9.81296 114.131 8.43774 112.441 8.43774H108.086C107.991 8.43774 107.878 8.48778 107.813 8.71037L107.685 9.13657C107.605 9.41092 107.75 9.48512 107.992 9.56104C108.681 9.73531 109.005 10.1097 109.005 11.0846V23.4771C109.005 24.3261 108.586 24.7022 108.185 24.8006C108.072 24.8523 107.943 24.8765 107.88 25.1526L107.782 25.5512C107.702 25.8755 107.864 25.9273 107.992 25.9273H111.365C111.51 25.9273 111.592 25.8514 111.638 25.753L111.768 25.2992C111.832 25.1025 111.799 24.9006 111.592 24.8506C110.803 24.5987 110.563 24.452 110.563 23.4754V9.78363Z" fill="white"/>
<path fill-rule="evenodd" clip-rule="evenodd" d="M121.634 26.2275C125.023 26.2275 127.691 22.3797 127.691 16.8322C127.691 12.0078 125.376 8.13403 122.195 8.13403C118.404 8.13403 116.138 12.6324 116.138 17.5311C116.138 23.1769 119.139 26.2275 121.634 26.2275ZM122.053 24.8765C119.385 24.8765 117.84 21.4031 117.84 16.7563C117.84 12.258 119.562 9.48509 121.859 9.48509C124.315 9.48509 125.988 12.4098 125.988 17.1049C125.986 20.6542 124.75 24.8765 122.053 24.8765Z" fill="white"/>
<path d="M134.006 11.7092C134.054 11.6109 134.099 11.5315 134.099 11.4332V9.58517C134.134 9.1607 133.878 8.93811 133.394 8.63788C132.912 8.33592 132.335 8.13403 131.595 8.13403C129.474 8.13403 128.172 10.5325 128.172 12.2821C128.172 14.7306 129.491 15.8815 130.436 16.9289C131.434 18.0314 133.074 19.5775 132.961 21.8292C132.912 23.5772 132.109 24.9507 130.808 24.9507C130.037 24.9507 129.312 24.452 129.008 23.3494C128.606 22.3038 128.606 21.2046 128.381 21.303L127.946 21.5256C127.786 21.6274 127.851 22.0018 127.851 22.2744V24.7005C127.851 25.351 127.851 25.3734 128.686 25.7754C129.201 26.0239 129.861 26.2258 130.761 26.2258C132.577 26.2258 134.569 24.5762 134.506 21.3772C134.441 18.5784 133.445 17.3033 131.694 15.4794C130.374 14.106 129.539 13.081 129.716 11.2813C129.845 10.0079 130.682 9.25905 131.467 9.25905C132.192 9.25905 132.673 9.63521 132.995 10.6602C133.203 11.3072 133.51 12.3339 133.638 12.1596L134.006 11.7092Z" fill="white"/>
<path d="M140.209 9.98545H143.116C143.374 9.98545 143.553 9.96129 143.728 9.68694L144.034 8.96051C144.259 8.56364 144.034 8.43768 143.81 8.43768H135.74C135.482 8.43768 135.307 8.46184 135.129 8.73619L134.824 9.46262C134.599 9.85949 134.824 9.98545 135.052 9.98545H138.65V23.4771C138.65 24.326 138.231 24.7022 137.83 24.8005C137.718 24.8523 137.588 24.8764 137.525 25.1525L137.428 25.5511C137.348 25.8755 137.509 25.9273 137.637 25.9273H141.011C141.157 25.9273 141.237 25.8513 141.284 25.753L141.413 25.2992C141.478 25.1025 141.444 24.9006 141.237 24.8505C140.448 24.5986 140.209 24.452 140.209 23.4753V9.98545Z" fill="white"/>
<path d="M5.33407 9.39539H7.4483C7.63679 9.39539 7.7648 9.37814 7.89281 9.20559L8.11365 8.74316C8.27823 8.48951 8.11365 8.41187 7.95189 8.41187H2.08747C1.89897 8.41187 1.76956 8.42394 1.64296 8.60167L1.4207 9.06065C1.25753 9.31775 1.4207 9.39539 1.58528 9.39539H4.20029V17.9918C4.20029 18.5336 3.89926 18.7734 3.60386 18.8373C3.52368 18.8701 3.42943 18.8873 3.38442 19.0599L3.31409 19.317C3.25641 19.5223 3.37176 19.5551 3.4646 19.5551H5.91784C6.02334 19.5551 6.08242 19.5085 6.11758 19.4429L6.21042 19.1565C6.25684 19.0323 6.23574 18.9028 6.08242 18.8701C5.50849 18.7079 5.33407 18.613 5.33407 17.9918V9.39539Z" fill="white"/>
<path d="M10.28 9.96826C10.28 9.42818 10.5839 9.18834 10.8751 9.12622C10.9567 9.09343 11.0495 9.07618 11.0973 8.9019L11.1677 8.64653C11.2253 8.4412 11.1072 8.41187 11.0143 8.41187H8.55969C8.457 8.41187 8.39792 8.45673 8.36134 8.51885L8.2685 8.80873C8.22349 8.93641 8.246 9.06065 8.39792 9.09516C8.97043 9.25218 9.14346 9.35053 9.14346 9.96826V17.9918C9.14346 18.5336 8.84102 18.7734 8.54843 18.8373C8.46966 18.8701 8.37401 18.8873 8.32758 19.0599L8.25866 19.317C8.19817 19.5206 8.31492 19.5551 8.40917 19.5551H10.8596C10.9679 19.5551 11.0242 19.5085 11.0608 19.4464L11.155 19.1565C11.2 19.034 11.1761 18.9011 11.0242 18.8718C10.4531 18.7096 10.2786 18.6147 10.2786 17.9935V13.823H14.2623V17.9935C14.2623 18.5353 13.9571 18.7752 13.6645 18.839C13.5857 18.8701 13.4915 18.8873 13.4451 19.0599L13.3733 19.317C13.3156 19.5206 13.4324 19.5551 13.5266 19.5551H15.9771C16.084 19.5551 16.1431 19.5085 16.1782 19.4464L16.2725 19.1565C16.3161 19.034 16.2936 18.9011 16.1431 18.8718C15.5705 18.7096 15.3933 18.6147 15.3933 17.9935V9.96998C15.3933 9.4299 15.7 9.19006 15.9897 9.12794C16.0727 9.09516 16.1642 9.0779 16.2134 8.90363L16.2837 8.64826C16.3428 8.4412 16.2232 8.41187 16.1304 8.41187H13.68C13.5731 8.41187 13.514 8.45673 13.4788 8.51885L13.386 8.80873C13.3382 8.93641 13.3635 9.06065 13.5126 9.09516C14.0865 9.25218 14.2623 9.35053 14.2623 9.96826V12.9137H10.28V9.96826Z" fill="white"/>
<path d="M18.5751 9.26943H20.2828C21.0649 9.26943 21.2393 10.5446 21.4166 10.353L21.6247 10.1115C21.6571 10.0632 21.6838 10.0166 21.6838 9.96826V8.80873C21.7077 8.58614 21.5657 8.41187 21.3434 8.41187H16.7759C16.7056 8.41187 16.6268 8.4412 16.5776 8.58614L16.4848 8.85359C16.4285 9.03132 16.5312 9.07618 16.7056 9.12794C17.2092 9.23838 17.4427 9.47477 17.4427 10.0959V18.4559C17.4427 19.5706 17.7001 19.5551 18.0602 19.5551H21.6712C21.9849 19.5551 22.2071 19.4136 22.2071 19.1565V17.7071C22.2071 17.6467 22.186 17.5794 22.1368 17.5621L21.8456 17.4362C21.6838 17.3706 21.5192 18.6958 20.3165 18.6958H19.2883C18.7875 18.6958 18.5751 18.5508 18.5751 17.2136V13.9334H20.8905C21.0761 13.9334 21.1943 13.8834 21.2632 13.7108L21.4278 13.314C21.4869 13.169 21.4278 13.0724 21.2745 13.0724H18.5765V9.26943H18.5751Z" fill="white"/>
<path d="M3.20111 20.7095H22.2081V25.9636H3.20111V20.7095Z" fill="#BB2026"/>
</svg>
